<svg width="14" height="12" viewBox="0 0 14 12" fill="none" xmlns="http://www.w3.org/2000/svg">
<path d="M7.66658 3.66699H6.33325V2.33366H7.66658V3.66699ZM7.66658 6.66699H6.33325V5.33366H7.66658V6.66699ZM7.66658 9.66699H6.33325V8.33366H7.66658V9.66699ZM13.6666 4.66699V2.00033C13.6666 1.6467 13.5261 1.30756 13.2761 1.05752C13.026 0.807468 12.6869 0.666992 12.3333 0.666992H1.66659C1.31296 0.666992 0.973825 0.807468 0.723776 1.05752C0.473728 1.30756 0.333252 1.6467 0.333252 2.00033V4.66699C0.686874 4.66699 1.02601 4.80747 1.27606 5.05752C1.52611 5.30757 1.66659 5.6467 1.66659 6.00033C1.66659 6.35395 1.52611 6.69309 1.27606 6.94313C1.02601 7.19318 0.686874 7.33366 0.333252 7.33366V10.0003C0.333252 10.3539 0.473728 10.6931 0.723776 10.9431C0.973825 11.1932 1.31296 11.3337 1.66659 11.3337H12.3333C12.6869 11.3337 13.026 11.1932 13.2761 10.9431C13.5261 10.6931 13.6666 10.3539 13.6666 10.0003V7.33366C13.313 7.33366 12.9738 7.19318 12.7238 6.94313C12.4737 6.69309 12.3333 6.35395 12.3333 6.00033C12.3333 5.6467 12.4737 5.30757 12.7238 5.05752C12.9738 4.80747 13.313 4.66699 13.6666 4.66699Z" fill="#FA662C"/>
</svg>
